<svg id="text" xmlns="http://www.w3.org/2000/svg" viewBox="0 0 10.2 10.2"><defs><style>.cls-1{fill:#009f8e}</style></defs><title>icon-day</title><path class="cls-1" d="M158.3 5063.2a2.5 2.5 0 1 0 0 3.5 2.5 2.5 0 0 0 0-3.5zM156.5 5061.7a.2.2 0 0 0 .2-.2v-1.4a.2.2 0 0 0-.5 0v1.4a.2.2 0 0 0 .3.2zM153.9 5062.7h.3a.2.2 0 0 0 0-.3l-1-1h-.3a.2.2 0 0 0 0 .3zM153.3 5065a.2.2 0 0 0-.2-.2h-1.4a.2.2 0 1 0 0 .5h1.4a.2.2 0 0 0 .2-.3zM153.9 5067.2l-1 1a.2.2 0 0 0 0 .3h.3l1-1a.2.2 0 0 0 0-.3h-.3zM156.5 5068.2a.2.2 0 0 0-.2.2v1.4a.2.2 0 0 0 .5 0v-1.4a.2.2 0 0 0-.3-.2zM159.2 5067.2h-.3a.2.2 0 0 0 0 .3l1 1h.3a.2.2 0 0 0 0-.3zM161.4 5064.7H160a.2.2 0 0 0 0 .5h1.4a.2.2 0 1 0 0-.5zM159 5062.8h.2l1-1a.2.2 0 0 0 0-.3h-.3l-1 1a.2.2 0 0 0 0 .3h.1z" transform="translate(-151.4 -5059.8)"/></svg>